<?xml version="1.0" encoding="utf-8"?>
<!-- Generator: Adobe Illustrator 22.0.0, SVG Export Plug-In . SVG Version: 6.00 Build 0)  -->
<svg version="1.1" id="Layer_1" xmlns="http://www.w3.org/2000/svg" xmlns:xlink="http://www.w3.org/1999/xlink" x="0px" y="0px"
	 viewBox="0 0 135.4 209.7" style="enable-background:new 0 0 135.4 209.7;" xml:space="preserve">
<style type="text/css">
	.st0{fill:#323534;}
	.st1{fill:#F1FFE7;}
	.st2{fill:none;stroke:#000000;stroke-width:7;stroke-miterlimit:10;}
	.st3{fill:#E54B4B;}
	.st4{fill:#25A18E;}
	.st5{fill:none;stroke:#E54B4B;stroke-width:12;stroke-miterlimit:10;}
</style>
<g>
	<rect x="-806.5" y="-55.8" class="st0" width="640" height="1136"/>
</g>
<g>
	<path d="M44.2,124.1c0.7,0.9,1,2.1,1,3.4c0,1.3-0.3,2.4-1,3.2c-0.4,0.5-0.9,0.9-1.7,1.3c1.1,0.4,2,1.1,2.5,1.9
		c0.6,0.9,0.9,2,0.9,3.2c0,1.3-0.3,2.5-1,3.5c-0.4,0.7-0.9,1.3-1.6,1.7c-0.7,0.5-1.5,0.9-2.5,1.1c-1,0.2-2,0.3-3.1,0.3h-9.9v-22
		h10.6C41.2,121.8,43.1,122.6,44.2,124.1z M32.3,125.6v4.8h5.3c1,0,1.7-0.2,2.3-0.5c0.6-0.4,0.9-1,0.9-1.9c0-1-0.4-1.7-1.2-2
		c-0.7-0.2-1.5-0.3-2.6-0.3H32.3z M32.3,134.1v5.9h5.3c1,0,1.7-0.1,2.2-0.4c1-0.5,1.4-1.4,1.4-2.7c0-1.1-0.5-1.9-1.4-2.4
		c-0.5-0.2-1.3-0.4-2.2-0.4H32.3z"/>
	<path d="M58.8,127.6c0-0.3-0.1-0.7-0.4-1.1c-0.5-0.7-1.1-1-2.1-1c-1.4,0-2.4,0.8-3,2.3c-0.3,0.9-0.5,2.1-0.7,3.8
		c0.5-0.6,1.1-1.1,1.8-1.4c0.7-0.3,1.5-0.4,2.4-0.4c1.9,0,3.5,0.7,4.7,2c1.2,1.3,1.8,3,1.8,5c0,2-0.6,3.8-1.8,5.3
		c-1.2,1.5-3.1,2.3-5.6,2.3c-2.7,0-4.7-1.1-6-3.4c-1-1.8-1.5-4.1-1.5-6.9c0-1.7,0.1-3,0.2-4c0.2-1.8,0.7-3.4,1.4-4.6
		c0.6-1,1.4-1.9,2.4-2.5s2.2-1,3.6-1c2,0,3.6,0.5,4.8,1.5s1.9,2.4,2,4.1H58.8z M53.7,139.8c0.6,0.7,1.4,1.1,2.4,1.1
		c0.9,0,1.7-0.4,2.2-1.1c0.5-0.7,0.8-1.6,0.8-2.8c0-1.3-0.3-2.2-0.9-2.9c-0.6-0.7-1.4-1-2.3-1c-0.7,0-1.4,0.2-1.9,0.7
		c-0.8,0.6-1.3,1.7-1.3,3.1C52.8,138.1,53.1,139,53.7,139.8z"/>
</g>
<g>
	<path class="st1" d="M-617.6,17.9c2.5,3.4,3.7,7.5,3.7,12.2c0,4.9-1.2,8.8-3.7,11.8c-1.4,1.7-3.4,3.2-6.1,4.6
		c4.1,1.5,7.2,3.8,9.3,7.1c2.1,3.2,3.1,7.1,3.1,11.7c0,4.7-1.2,9-3.6,12.8c-1.5,2.5-3.4,4.6-5.7,6.3c-2.6,2-5.6,3.3-9.1,4
		c-3.5,0.7-7.3,1.1-11.3,1.1h-36.1V9.4h38.7C-628.6,9.6-621.7,12.4-617.6,17.9z M-661.1,23.3V41h19.5c3.5,0,6.3-0.7,8.5-2
		c2.2-1.3,3.3-3.7,3.3-7c0-3.7-1.4-6.2-4.3-7.4c-2.5-0.8-5.6-1.3-9.5-1.3H-661.1z M-661.1,54.2v21.4h19.5c3.5,0,6.2-0.5,8.1-1.4
		c3.5-1.7,5.3-5.1,5.3-10c0-4.2-1.7-7-5.1-8.6c-1.9-0.9-4.6-1.3-8-1.4H-661.1z"/>
	<path class="st1" d="M-564.6,30.5c0-1.3-0.5-2.7-1.5-4.2c-1.7-2.5-4.2-3.7-7.6-3.7c-5,0-8.6,2.8-10.8,8.5c-1.2,3.1-2,7.7-2.4,13.8
		c1.9-2.3,4.1-3.9,6.7-5c2.5-1.1,5.4-1.6,8.7-1.6c7,0,12.7,2.4,17.2,7.1c4.5,4.7,6.7,10.8,6.7,18.2c0,7.4-2.2,13.8-6.6,19.5
		c-4.4,5.6-11.2,8.4-20.4,8.4c-9.9,0-17.2-4.1-22-12.4c-3.7-6.5-5.5-14.9-5.5-25.1c0-6,0.3-10.9,0.8-14.7c0.9-6.7,2.7-12.3,5.3-16.7
		c2.2-3.8,5.2-6.9,8.8-9.2c3.6-2.3,8-3.5,13.1-3.5c7.3,0,13.2,1.9,17.5,5.6c4.3,3.8,6.8,8.7,7.3,15H-564.6z M-583,75
		c2.3,2.7,5.2,4,8.7,4c3.4,0,6.2-1.3,8.1-3.9c2-2.6,3-6,3-10.1c0-4.6-1.1-8.1-3.4-10.6c-2.2-2.4-5-3.7-8.3-3.7c-2.6,0-5,0.8-7,2.4
		c-3,2.4-4.6,6.2-4.6,11.4C-586.4,68.8-585.3,72.3-583,75z"/>
</g>
<path d="M83.2,157.1l-18-105.4c-0.1-0.7-0.7-1.2-1.5-1.2h-8.5c-0.5,0-0.9,0.2-1.2,0.6l-38.1,52c-0.2,0.3-0.3,0.6-0.3,0.9v92.4
	c0,0.8,0.7,1.5,1.5,1.5h10.5c0.8,0,1.5-0.7,1.5-1.5v-9.8c0-0.2,0-0.3,0.1-0.5l9.5-26.3c0.2-0.6,0.8-1,1.4-1h41.6
	C82.7,158.8,83.4,158,83.2,157.1z M52.1,62.8c1.5,0,2.7,1.9,2.7,4.4s-1.2,4.4-2.7,4.4s-2.7-1.9-2.7-4.4c0-0.8,0.1-1.5,0.3-2.1l1.5-2
	C51.5,62.9,51.8,62.8,52.1,62.8z M44.8,72.9c1.5,0,2.7,1.9,2.7,4.4c0,2.4-1.2,4.4-2.7,4.4s-2.7-1.9-2.7-4.4c0-0.9,0.2-1.7,0.4-2.4
	l1.2-1.6C44.1,73.1,44.4,72.9,44.8,72.9z M37.5,83c1.5,0,2.7,1.9,2.7,4.4c0,2.4-1.2,4.4-2.7,4.4c-1.5,0-2.7-1.9-2.7-4.4
	c0-1,0.2-2,0.6-2.7l0.8-1.1C36.6,83.2,37,83,37.5,83z M32.9,98.1c0,2.4-1.2,4.4-2.7,4.4c-1.5,0-2.7-1.9-2.7-4.4
	c0-2.4,1.2-4.4,2.7-4.4C31.7,93.7,32.9,95.7,32.9,98.1z M40.2,98.1c0,2.4-1.2,4.4-2.7,4.4c-1.5,0-2.7-1.9-2.7-4.4
	c0-2.4,1.2-4.4,2.7-4.4C39,93.7,40.2,95.7,40.2,98.1z M44.8,91.7c-1.5,0-2.7-1.9-2.7-4.4c0-2.4,1.2-4.4,2.7-4.4s2.7,1.9,2.7,4.4
	C47.4,89.8,46.3,91.7,44.8,91.7z M47.4,98.1c0,2.4-1.2,4.4-2.7,4.4s-2.7-1.9-2.7-4.4c0-2.4,1.2-4.4,2.7-4.4S47.4,95.7,47.4,98.1z
	 M52.1,91.7c-1.5,0-2.7-1.9-2.7-4.4c0-2.4,1.2-4.4,2.7-4.4s2.7,1.9,2.7,4.4C54.7,89.8,53.6,91.7,52.1,91.7z M54.7,98.1
	c0,2.4-1.2,4.4-2.7,4.4s-2.7-1.9-2.7-4.4c0-2.4,1.2-4.4,2.7-4.4S54.7,95.7,54.7,98.1z M52.1,81.6c-1.5,0-2.7-1.9-2.7-4.4
	c0-2.4,1.2-4.4,2.7-4.4s2.7,1.9,2.7,4.4C54.7,79.7,53.6,81.6,52.1,81.6z M59.4,91.7c-1.5,0-2.7-1.9-2.7-4.4c0-2.4,1.2-4.4,2.7-4.4
	c1.5,0,2.7,1.9,2.7,4.4C62,89.8,60.9,91.7,59.4,91.7z M62,98.1c0,2.4-1.2,4.4-2.7,4.4c-1.5,0-2.7-1.9-2.7-4.4c0-2.4,1.2-4.4,2.7-4.4
	C60.9,93.7,62,95.7,62,98.1z M59.4,81.6c-1.5,0-2.7-1.9-2.7-4.4c0-2.4,1.2-4.4,2.7-4.4c1.5,0,2.7,1.9,2.7,4.4
	C62,79.7,60.9,81.6,59.4,81.6z M59.4,71.5c-1.5,0-2.7-1.9-2.7-4.4s1.2-4.4,2.7-4.4c1.5,0,2.7,1.9,2.7,4.4S60.9,71.5,59.4,71.5z
	 M76.1,154.1H36.9c-0.6,0-1.2,0.4-1.4,1l-10.9,30.2c-0.1,0.2-0.1,0.3-0.1,0.5v5.8c0,0.8-0.7,1.5-1.5,1.5h-1c-0.8,0-1.5-0.7-1.5-1.5
	v-86.1c0-0.3,0.1-0.6,0.3-0.8h48.7l8.1,47.7C77.7,153.2,77,154.1,76.1,154.1z"/>
<rect x="3.5" y="3.5" class="st2" width="128.4" height="202.7"/>
<g>
	<path class="st3" d="M-181.5-40.8v1106h-610v-1106H-181.5 M-166.5-55.8h-640v1136h640V-55.8L-166.5-55.8z"/>
</g>
<g>
</g>
<rect x="-680.5" y="282.2" style="fill:none;" width="386" height="157"/>
<text transform="matrix(1 0 0 1 -680.5 313.1818)"><tspan x="0" y="0" class="st3" style="font-family:'Helvetica-Bold'; font-size:36px;">B6 is a weekly </tspan><tspan x="0" y="43.2" class="st3" style="font-family:'Helvetica-Bold'; font-size:36px;">podcast hosted at </tspan><tspan x="0" y="86.4" class="st3" style="font-family:'Helvetica-Bold'; font-size:36px;">MASS MoCA.</tspan></text>
<rect x="235.1" y="1121.2" style="fill:none;" width="3" height="1.5"/>
<text transform="matrix(1 0 0 1 -404.5215 622.1818)"><tspan x="0" y="0" class="st4" style="font-family:'Helvetica-Bold'; font-size:36px;">Home </tspan><tspan x="-60" y="43.2" class="st4" style="font-family:'Helvetica-Bold'; font-size:36px;">Episodes </tspan><tspan x="-3.9" y="86.4" class="st4" style="font-family:'Helvetica-Bold'; font-size:36px;">About </tspan><tspan x="-34" y="129.6" class="st4" style="font-family:'Helvetica-Bold'; font-size:36px;">Contact </tspan></text>
<line class="st5" x1="-550.5" y1="79.2" x2="-329.5" y2="79.2"/>
</svg>
